<svg width="34" height="33" viewBox="0 0 34 33" fill="none" xmlns="http://www.w3.org/2000/svg">
<path d="M27.2 26.4C25.313 26.4 23.8 27.8685 23.8 29.7C23.8 30.5752 24.1582 31.4146 24.7958 32.0335C25.4335 32.6523 26.2983 33 27.2 33C28.1017 33 28.9665 32.6523 29.6042 32.0335C30.2418 31.4146 30.6 30.5752 30.6 29.7C30.6 28.8248 30.2418 27.9854 29.6042 27.3665C28.9665 26.7477 28.1017 26.4 27.2 26.4ZM0 0V3.3H3.4L9.52 15.8235L7.208 19.866C6.953 20.328 6.8 20.8725 6.8 21.45C6.8 22.3252 7.15821 23.1646 7.79584 23.7835C8.43346 24.4023 9.29826 24.75 10.2 24.75H30.6V21.45H10.914C10.8013 21.45 10.6932 21.4065 10.6135 21.3292C10.5338 21.2518 10.489 21.1469 10.489 21.0375C10.489 20.955 10.506 20.889 10.54 20.8395L12.07 18.15H24.735C26.01 18.15 27.132 17.457 27.71 16.4505L33.796 5.775C33.915 5.511 34 5.2305 34 4.95C34 4.51239 33.8209 4.09271 33.5021 3.78327C33.1833 3.47384 32.7509 3.3 32.3 3.3H7.157L5.559 0M10.2 26.4C8.313 26.4 6.8 27.8685 6.8 29.7C6.8 30.5752 7.15821 31.4146 7.79584 32.0335C8.43346 32.6523 9.29826 33 10.2 33C11.1017 33 11.9665 32.6523 12.6042 32.0335C13.2418 31.4146 13.6 30.5752 13.6 29.7C13.6 28.8248 13.2418 27.9854 12.6042 27.3665C11.9665 26.7477 11.1017 26.4 10.2 26.4Z" fill="#987AAC"/>
</svg>
