<svg width="37" height="28" viewBox="0 0 37 28" fill="none" xmlns="http://www.w3.org/2000/svg">
<path id="Vector" d="M31.3067 2.32697C28.9633 1.24226 26.4261 0.454961 23.7831 8.04758e-05C23.76 -0.000655387 23.7369 0.00366263 23.7156 0.012731C23.6943 0.0217994 23.6752 0.0353978 23.6598 0.0525671C23.3426 0.629916 22.9726 1.38222 22.726 1.95957C19.9227 1.53968 17.0719 1.53968 14.2686 1.95957C14.0219 1.36472 13.6519 0.629916 13.3171 0.0525671C13.2995 0.0175763 13.2467 8.04758e-05 13.1938 8.04758e-05C10.5509 0.454961 8.03127 1.24226 5.67025 2.32697C5.65263 2.32697 5.63502 2.34447 5.6174 2.36196C0.824883 9.4826 -0.496582 16.4108 0.155341 23.269C0.155341 23.304 0.17296 23.339 0.2082 23.3565C3.37972 25.6659 6.42789 27.0655 9.44083 27.9928C9.49369 28.0102 9.54655 27.9928 9.56417 27.9578C10.269 26.9955 10.9033 25.9808 11.4495 24.9136C11.4847 24.8436 11.4495 24.7736 11.379 24.7561C10.3747 24.3712 9.42321 23.9163 8.48938 23.3915C8.4189 23.3565 8.4189 23.2515 8.47176 23.199C8.66557 23.059 8.85939 22.9016 9.0532 22.7616C9.08844 22.7266 9.1413 22.7266 9.17654 22.7441C15.2377 25.4909 21.7745 25.4909 27.7651 22.7441C27.8004 22.7266 27.8532 22.7266 27.8885 22.7616C28.0823 22.9191 28.2761 23.059 28.4699 23.2165C28.5404 23.269 28.5404 23.374 28.4523 23.409C27.5361 23.9513 26.567 24.3887 25.5627 24.7736C25.4922 24.7911 25.4746 24.8786 25.4922 24.9311C26.0561 25.9983 26.6904 27.013 27.3775 27.9753C27.4304 27.9928 27.4832 28.0102 27.5361 27.9928C30.5667 27.0655 33.6148 25.6659 36.7863 23.3565C36.8216 23.339 36.8392 23.304 36.8392 23.269C37.6145 15.3436 35.553 8.46786 31.3771 2.36196C31.3595 2.34447 31.3419 2.32697 31.3067 2.32697ZM12.3657 19.0876C10.5509 19.0876 9.03559 17.4255 9.03559 15.3786C9.03559 13.3316 10.5156 11.6695 12.3657 11.6695C14.2333 11.6695 15.7134 13.3491 15.6958 15.3786C15.6958 17.4255 14.2157 19.0876 12.3657 19.0876ZM24.6465 19.0876C22.8317 19.0876 21.3164 17.4255 21.3164 15.3786C21.3164 13.3316 22.7964 11.6695 24.6465 11.6695C26.5142 11.6695 27.9942 13.3491 27.9766 15.3786C27.9766 17.4255 26.5142 19.0876 24.6465 19.0876Z" fill="#946DAE"/>
</svg>
