<svg width="27" height="27" viewBox="0 0 27 27" fill="none" xmlns="http://www.w3.org/2000/svg">
<path id="Vector" d="M20.5714 16.7143H5.14286L0 21.8571V1.28571C0 0.944722 0.135459 0.617695 0.376577 0.376577C0.617695 0.135459 0.944722 0 1.28571 0H20.5714C20.9124 0 21.2394 0.135459 21.4806 0.376577C21.7217 0.617695 21.8571 0.944722 21.8571 1.28571V15.4286C21.8571 15.7696 21.7217 16.0966 21.4806 16.3377C21.2394 16.5788 20.9124 16.7143 20.5714 16.7143ZM27 9V27L21.8571 21.8571H7.71429C7.37329 21.8571 7.04627 21.7217 6.80515 21.4806C6.56403 21.2394 6.42857 20.9124 6.42857 20.5714V19.2857H24.4286V7.71429H25.7143C26.0553 7.71429 26.3823 7.84974 26.6234 8.09086C26.8645 8.33198 27 8.65901 27 9ZM7.95857 2.57143C6.84 2.57143 5.94 2.82857 5.24571 3.33C4.57714 3.85714 4.24286 4.59 4.25571 5.60571L4.26857 5.64429H6.75C6.76286 5.25857 6.87857 4.96286 7.11 4.75714C7.34808 4.55971 7.64935 4.45473 7.95857 4.46143C8.35714 4.46143 8.69143 4.59 8.92286 4.82143C9.15429 5.06571 9.25714 5.4 9.25714 5.78571C9.25714 6.19714 9.16714 6.54429 8.96143 6.84C8.78143 7.13571 8.51143 7.39286 8.17714 7.59857C7.52143 8.03571 7.07143 8.42143 6.82714 8.76857C6.57 9.10286 6.42857 9.64286 6.42857 10.2857H9C9 9.88714 9.05143 9.56571 9.16714 9.33429C9.28286 9.10286 9.50143 8.87143 9.82286 8.66571C10.4014 8.35714 10.8771 7.98429 11.25 7.47C11.6229 6.95571 11.8157 6.42857 11.8157 5.78571C11.8157 4.80857 11.4686 4.02429 10.7743 3.44571C10.0929 2.86714 9.15429 2.57143 7.95857 2.57143ZM6.42857 11.5714V14.1429H9V11.5714H6.42857ZM14.1429 14.1429H16.7143V11.5714H14.1429V14.1429ZM14.1429 2.57143V10.2857H16.7143V2.57143H14.1429Z" fill="white"/>
</svg>
