<svg width="22" height="27" viewBox="0 0 22 27" fill="none" xmlns="http://www.w3.org/2000/svg">
<path id="Vector" d="M18.7 14.04C19.5752 14.04 20.4146 14.3814 21.0335 14.989C21.6523 15.5966 22 16.4207 22 17.28V18.36C22 22.6174 17.908 27 11 27C4.092 27 0 22.6174 0 18.36V17.28C0 16.4207 0.347678 15.5966 0.966548 14.989C1.58542 14.3814 2.42479 14.04 3.3 14.04H18.7ZM11 0C12.6046 0 14.1434 0.62582 15.278 1.73979C16.4126 2.85375 17.05 4.36461 17.05 5.94C17.05 7.51539 16.4126 9.02625 15.278 10.1402C14.1434 11.2542 12.6046 11.88 11 11.88C9.39544 11.88 7.8566 11.2542 6.722 10.1402C5.58741 9.02625 4.95 7.51539 4.95 5.94C4.95 4.36461 5.58741 2.85375 6.722 1.73979C7.8566 0.62582 9.39544 0 11 0Z" fill="#946DAE"/>
</svg>
