<svg width="27" height="27" viewBox="0 0 27 27" fill="none" xmlns="http://www.w3.org/2000/svg">
<path id="Vector" d="M26.6603 2.12843C26.8839 1.88851 27.0056 1.57118 26.9998 1.2433C26.994 0.915415 26.8612 0.602578 26.6293 0.370693C26.3974 0.138809 26.0846 0.00598229 25.7567 0.000197179C25.4288 -0.00558794 25.1115 0.11612 24.8716 0.33968L20.7439 4.46562C19.4328 3.57194 17.8508 3.164 16.2709 3.31218C14.6911 3.46037 13.2126 4.15539 12.0904 5.27731L11.5842 5.78356C11.3505 6.01706 11.1651 6.29433 11.0386 6.59952C10.9122 6.9047 10.8471 7.23182 10.8471 7.56218C10.8471 7.89254 10.9122 8.21966 11.0386 8.52484C11.1651 8.83003 11.3505 9.1073 11.5842 9.34081L17.6592 15.4158C18.1307 15.8873 18.7702 16.1521 19.437 16.1521C20.1038 16.1521 20.7432 15.8873 21.2148 15.4158L21.721 14.9096C22.8432 13.7877 23.5385 12.3092 23.687 10.7294C23.8355 9.14953 23.4278 7.56742 22.5344 6.25605L26.6603 2.12843ZM9.40394 11.5211C8.93242 11.0496 8.29294 10.7848 7.62616 10.7848C6.95938 10.7848 6.31991 11.0496 5.84838 11.5211L5.34213 12.0273C4.22022 13.1494 3.5252 14.628 3.37701 16.2078C3.22883 17.7876 3.63677 19.3696 4.53045 20.6808L0.40282 24.8084C0.278474 24.9243 0.178739 25.064 0.109565 25.2193C0.040391 25.3745 0.00319529 25.5421 0.000196968 25.7121C-0.00280136 25.882 0.0284588 26.0508 0.092113 26.2084C0.155767 26.366 0.250511 26.5091 0.370693 26.6293C0.490874 26.7495 0.634032 26.8442 0.791624 26.9079C0.949217 26.9715 1.11802 27.0028 1.28795 26.9998C1.45789 26.9968 1.62548 26.9596 1.78073 26.8904C1.93598 26.8213 2.0757 26.7215 2.19157 26.5972L6.31919 22.4696C7.63018 23.3634 9.21207 23.7717 10.7919 23.6238C12.3717 23.4759 13.8504 22.7812 14.9727 21.6596L15.4789 21.1533C15.7126 20.9198 15.898 20.6425 16.0245 20.3373C16.151 20.0322 16.2161 19.705 16.2161 19.3747C16.2161 19.0443 16.151 18.7172 16.0245 18.412C15.898 18.1068 15.7126 17.8296 15.4789 17.5961L9.40394 11.5211Z" fill="white"/>
</svg>
