<svg width="22" height="27" viewBox="0 0 22 27" fill="none" xmlns="http://www.w3.org/2000/svg">
<path id="Vector" d="M11 0C7.20913 0 4.125 3.02805 4.125 6.75V10.8H2.75C2.02065 10.8 1.32118 11.0845 0.805456 11.5908C0.289731 12.0972 0 12.7839 0 13.5V24.3C0 25.0161 0.289731 25.7028 0.805456 26.2092C1.32118 26.7155 2.02065 27 2.75 27H19.25C19.9793 27 20.6788 26.7155 21.1945 26.2092C21.7103 25.7028 22 25.0161 22 24.3V13.5C22 12.7839 21.7103 12.0972 21.1945 11.5908C20.6788 11.0845 19.9793 10.8 19.25 10.8H17.875V6.75C17.875 3.02805 14.7909 0 11 0ZM6.875 6.75C6.875 4.5171 8.72575 2.7 11 2.7C13.2743 2.7 15.125 4.5171 15.125 6.75V10.8H6.875V6.75ZM12.375 21.226V24.3H9.625V21.226C9.14428 20.9558 8.75828 20.5488 8.51789 20.0588C8.2775 19.5688 8.19402 19.0187 8.27844 18.4812C8.36287 17.9437 8.61123 17.4439 8.9908 17.0477C9.37037 16.6516 9.86331 16.3776 10.4046 16.2621C10.8067 16.1748 11.2236 16.1773 11.6246 16.2692C12.0256 16.3612 12.4004 16.5404 12.7215 16.7936C13.0425 17.0467 13.3016 17.3674 13.4796 17.732C13.6576 18.0966 13.75 18.4957 13.75 18.9C13.7492 19.3722 13.6217 19.8358 13.3803 20.2441C13.1389 20.6525 12.7922 20.9912 12.375 21.226Z" fill="white"/>
</svg>
