<svg width="10" height="10" viewBox="0 0 10 10" fill="none" xmlns="http://www.w3.org/2000/svg">
<g id="Group">
<path id="Vector" fill-rule="evenodd" clip-rule="evenodd" d="M10 0V10H0V0H10ZM5.24708 9.69083L5.2425 9.69167L5.21292 9.70625L5.20458 9.70792L5.19875 9.70625L5.16917 9.69167C5.165 9.69 5.16125 9.69125 5.15917 9.69375L5.1575 9.69792L5.15042 9.87625L5.1525 9.88458L5.15667 9.89L5.2 9.92083L5.20625 9.9225L5.21125 9.92083L5.25458 9.89L5.25958 9.88333L5.26125 9.87625L5.25417 9.69833C5.25333 9.69417 5.25042 9.69125 5.24708 9.69083ZM5.3575 9.64375L5.35208 9.64458L5.275 9.68333L5.27083 9.6875L5.26958 9.69208L5.27708 9.87125L5.27917 9.87625L5.2825 9.87917L5.36625 9.91792C5.37125 9.91958 5.37583 9.91792 5.37833 9.91458L5.38 9.90875L5.36583 9.65292C5.36458 9.64792 5.36167 9.64458 5.3575 9.64375ZM5.05958 9.64458C5.05769 9.64372 5.05557 9.6435 5.05354 9.64395C5.05151 9.6444 5.04968 9.6455 5.04833 9.64708L5.04583 9.65292L5.03167 9.90875C5.03167 9.91375 5.03458 9.91708 5.03875 9.91875L5.045 9.91792L5.12875 9.87917L5.13292 9.87583L5.13458 9.87125L5.14167 9.69208L5.14042 9.68708L5.13625 9.68292L5.05958 9.64458Z" fill="#946DAE"/>
<path id="Vector_2" fill-rule="evenodd" clip-rule="evenodd" d="M5.29416 6.54464C5.21602 6.62276 5.11006 6.66664 4.99957 6.66664C4.88909 6.66664 4.78313 6.62276 4.70499 6.54464L2.34791 4.18756C2.30811 4.14913 2.27637 4.10315 2.25453 4.05231C2.23269 4.00148 2.2212 3.9468 2.22072 3.89148C2.22024 3.83615 2.23078 3.78129 2.25173 3.73008C2.27268 3.67887 2.30362 3.63235 2.34274 3.59323C2.38186 3.55411 2.42839 3.52317 2.47959 3.50222C2.5308 3.48127 2.58567 3.47073 2.64099 3.47121C2.69632 3.47169 2.75099 3.48318 2.80183 3.50502C2.85266 3.52686 2.89864 3.5586 2.93707 3.59839L4.99957 5.66089L7.06207 3.59839C7.14066 3.5225 7.24591 3.4805 7.35516 3.48145C7.46441 3.4824 7.56891 3.52622 7.64616 3.60347C7.72342 3.68072 7.76724 3.78523 7.76819 3.89448C7.76914 4.00373 7.72714 4.10898 7.65124 4.18756L5.29416 6.54464Z" fill="white"/>
</g>
</svg>
