<svg width="40" height="40" viewBox="0 0 40 40" fill="none" xmlns="http://www.w3.org/2000/svg">
<g id="Group 46">
<g id="Group 21">
<rect id="Rectangle 334" width="40" height="40" fill="#E6D1F2"/>
<g id="Group">
<path id="Vector" fill-rule="evenodd" clip-rule="evenodd" d="M14.9253 21.7628C14.5742 21.4018 14.377 20.9125 14.377 20.4023C14.377 19.8921 14.5742 19.4027 14.9253 19.0417L21.9953 11.7795C22.347 11.4184 22.824 11.2157 23.3214 11.2158C23.5676 11.2159 23.8114 11.2657 24.0389 11.3626C24.2664 11.4594 24.4731 11.6013 24.6472 11.7801C24.8213 11.9589 24.9593 12.1712 25.0535 12.4049C25.1477 12.6385 25.1961 12.8889 25.1961 13.1417C25.196 13.3946 25.1475 13.645 25.0532 13.8786C24.9589 14.1121 24.8207 14.3244 24.6466 14.5031L18.9016 20.4023L24.6466 26.3014C24.8257 26.4789 24.9687 26.6913 25.067 26.9261C25.1654 27.161 25.2172 27.4136 25.2195 27.6692C25.2218 27.9249 25.1745 28.1784 25.0803 28.4151C24.9861 28.6517 24.847 28.8668 24.671 29.0476C24.4951 29.2285 24.2858 29.3715 24.0554 29.4685C23.825 29.5654 23.5782 29.6142 23.3292 29.6121C23.0802 29.61 22.8342 29.557 22.6054 29.4562C22.3766 29.3554 22.1696 29.2089 21.9966 29.0251L14.9228 21.7628H14.9253Z" fill="white"/>
</g>
</g>
</g>
</svg>
