<svg width="40" height="40" viewBox="0 0 40 40" fill="none" xmlns="http://www.w3.org/2000/svg">
<g id="Group 262">
<rect id="Rectangle 334" width="40" height="40" fill="#E6D1F2"/>
<g id="Group">
<path id="Vector" fill-rule="evenodd" clip-rule="evenodd" d="M19.9253 21.7628C19.5742 21.4018 19.377 20.9125 19.377 20.4023C19.377 19.8921 19.5742 19.4027 19.9253 19.0417L26.9953 11.7795C27.347 11.4184 27.824 11.2157 28.3214 11.2158C28.5676 11.2159 28.8114 11.2657 29.0389 11.3626C29.2664 11.4594 29.4731 11.6013 29.6472 11.7801C29.8213 11.9589 29.9593 12.1712 30.0535 12.4049C30.1477 12.6385 30.1961 12.8889 30.1961 13.1417C30.196 13.3946 30.1475 13.645 30.0532 13.8786C29.9589 14.1121 29.8207 14.3244 29.6466 14.5031L23.9016 20.4023L29.6466 26.3014C29.8257 26.4789 29.9687 26.6913 30.067 26.9261C30.1654 27.161 30.2172 27.4136 30.2195 27.6692C30.2218 27.9249 30.1745 28.1784 30.0803 28.4151C29.9861 28.6517 29.847 28.8668 29.671 29.0476C29.4951 29.2285 29.2858 29.3715 29.0554 29.4685C28.825 29.5654 28.5782 29.6142 28.3292 29.6121C28.0802 29.61 27.8342 29.557 27.6054 29.4562C27.3766 29.3554 27.1696 29.2089 26.9966 29.0251L19.9228 21.7628H19.9253Z" fill="white"/>
<path id="Vector_2" fill-rule="evenodd" clip-rule="evenodd" d="M10.5484 21.7628C10.1972 21.4018 10 20.9125 10 20.4023C10 19.8921 10.1972 19.4027 10.5484 19.0417L17.6183 11.7795C17.9701 11.4184 18.4471 11.2157 18.9444 11.2158C19.1907 11.2159 19.4345 11.2657 19.662 11.3626C19.8895 11.4594 20.0961 11.6013 20.2702 11.7801C20.4443 11.9589 20.5824 12.1712 20.6766 12.4049C20.7707 12.6385 20.8192 12.8889 20.8191 13.1417C20.8191 13.3946 20.7705 13.645 20.6762 13.8786C20.5819 14.1121 20.4438 14.3244 20.2696 14.5031L14.5246 20.4023L20.2696 26.3014C20.4488 26.4789 20.5917 26.6913 20.6901 26.9261C20.7884 27.161 20.8403 27.4136 20.8426 27.6692C20.8448 27.9249 20.7975 28.1784 20.7034 28.4151C20.6092 28.6517 20.4701 28.8668 20.2941 29.0476C20.1181 29.2285 19.9088 29.3715 19.6785 29.4685C19.4481 29.5654 19.2012 29.6142 18.9522 29.6121C18.7033 29.61 18.4572 29.557 18.2284 29.4562C17.9996 29.3554 17.7926 29.2089 17.6196 29.0251L10.5459 21.7628H10.5484Z" fill="white"/>
</g>
</g>
</svg>
