<svg width="46" height="40" viewBox="0 0 46 40" fill="none" xmlns="http://www.w3.org/2000/svg">
<rect width="40" height="40" fill="#E6D1F2"/>
<path fill-rule="evenodd" clip-rule="evenodd" d="M20.2708 19.0418C20.6219 19.4028 20.8191 19.8922 20.8191 20.4024C20.8191 20.9126 20.6219 21.4019 20.2708 21.7629L13.2008 29.0252C12.849 29.3862 12.372 29.5889 11.8747 29.5888C11.3774 29.5887 10.9005 29.3857 10.5489 29.0245C10.1973 28.6634 9.99988 28.1736 10 27.6629C10.0001 27.1522 10.1978 26.6625 10.5495 26.3015L16.2945 20.4024L10.5495 14.5032C10.2078 14.1403 10.0186 13.654 10.0226 13.1492C10.0267 12.6444 10.2236 12.1614 10.5711 11.8043C10.9186 11.4472 11.3888 11.2444 11.8804 11.2398C12.372 11.2352 12.8457 11.429 13.1995 11.7796L20.272 19.0406L20.2708 19.0418Z" fill="white"/>
<path fill-rule="evenodd" clip-rule="evenodd" d="M30.2708 19.0418C30.6219 19.4028 30.8191 19.8922 30.8191 20.4024C30.8191 20.9126 30.6219 21.4019 30.2708 21.7629L23.2008 29.0252C22.849 29.3862 22.372 29.5889 21.8747 29.5888C21.3774 29.5887 20.9005 29.3857 20.5489 29.0245C20.1973 28.6634 19.9999 28.1736 20 27.6629C20.0001 27.1522 20.1978 26.6625 20.5495 26.3015L26.2945 20.4024L20.5495 14.5032C20.2078 14.1403 20.0186 13.654 20.0226 13.1492C20.0267 12.6444 20.2236 12.1614 20.5711 11.8043C20.9186 11.4472 21.3888 11.2444 21.8804 11.2398C22.372 11.2352 22.8457 11.429 23.1995 11.7796L30.272 19.0406L30.2708 19.0418Z" fill="white"/>
</svg>
