<svg width="40" height="40" viewBox="0 0 40 40" fill="none" xmlns="http://www.w3.org/2000/svg">
<rect width="40" height="40" fill="#E6D1F2"/>
<path fill-rule="evenodd" clip-rule="evenodd" d="M25.0755 19.0418C25.4266 19.4028 25.6238 19.8922 25.6238 20.4024C25.6238 20.9126 25.4266 21.4019 25.0755 21.7629L18.0055 29.0252C17.6537 29.3862 17.1767 29.5889 16.6794 29.5888C16.1821 29.5887 15.7052 29.3857 15.3536 29.0245C15.002 28.6634 14.8046 28.1736 14.8047 27.6629C14.8048 27.1522 15.0025 26.6625 15.3542 26.3015L21.0992 20.4024L15.3542 14.5032C15.0125 14.1403 14.8233 13.654 14.8273 13.1492C14.8314 12.6444 15.0283 12.1614 15.3758 11.8043C15.7233 11.4472 16.1935 11.2444 16.6851 11.2398C17.1767 11.2352 17.6504 11.429 18.0042 11.7796L25.0767 19.0406L25.0755 19.0418Z" fill="white"/>
</svg>
