<svg width="15" height="11" viewBox="0 0 15 11" fill="none" xmlns="http://www.w3.org/2000/svg">
<g id="Group 6">
<path id="Vector" d="M0 1.69073V3.33231H2.345L0 1.69073ZM1.94333 10.83H5.41667V8.39866L1.94333 10.83ZM9.58333 8.39908V10.83H13.0562L9.58333 8.39908ZM0 7.49769V9.13927L2.34583 7.49769H0ZM13.0571 0H9.58333V2.43133L13.0571 0ZM15 9.13969V7.49769H12.6537L15 9.13969ZM15 3.33231V1.69073L12.6546 3.33231H15ZM5.41667 0H1.94333L5.41667 2.43133V0Z" fill="#00247D"/>
<path id="Vector_2" d="M10.475 7.49764L14.5217 10.3305C14.7193 10.127 14.8613 9.87614 14.9342 9.60199L11.9279 7.49764H10.475ZM5.41668 7.49764H4.5246L0.478346 10.3301C0.69543 10.5509 0.973763 10.7087 1.28585 10.782L5.41668 7.89044V7.49764ZM9.58335 3.33226H10.4754L14.5217 0.499796C14.3009 0.275813 14.021 0.119091 13.7146 0.0478516L9.58335 2.93946V3.33226ZM4.5246 3.33226L0.478346 0.499796C0.280827 0.703472 0.138686 0.954258 0.0654297 1.22832L3.07168 3.33226H4.5246Z" fill="#CF1B2B"/>
<path id="Vector_3" d="M15 6.66462H8.75V10.83H9.58333V8.39908L13.0562 10.83H13.3333C13.5547 10.83 13.7738 10.7859 13.9779 10.7001C14.182 10.6144 14.3668 10.4887 14.5217 10.3306L10.475 7.49769H11.9279L14.9342 9.60204C14.9729 9.46167 15 9.3163 15 9.16385V9.13969L12.6537 7.49769H15V6.66462ZM0 6.66462V7.49769H2.34583L0 9.13927V9.16385C0 9.61829 0.182917 10.0294 0.478333 10.3302L4.52458 7.49769H5.41667V7.89049L1.28583 10.7817C1.40833 10.8108 1.535 10.83 1.66667 10.83H1.94333L5.41667 8.39866V10.83H6.25V6.66462H0ZM15 1.66615C15.0003 1.22961 14.8284 0.810564 14.5217 0.499846L10.4754 3.33231H9.58333V2.93951L13.7146 0.047902C13.5898 0.0172978 13.4618 0.00122381 13.3333 1.57609e-07H13.0571L9.58333 2.43134V1.57609e-07H8.75V4.16538H15V3.33231H12.6546L15 1.69073V1.66615ZM5.41667 1.57609e-07V2.43134L1.94333 1.57609e-07H1.66667C1.44526 -9.6292e-05 1.22607 0.0440754 1.02199 0.129916C0.817912 0.215757 0.633068 0.341534 0.478333 0.499846L4.52458 3.33231H3.07167L0.0654167 1.22837C0.0240751 1.37071 0.00207226 1.51795 0 1.66615L0 1.69073L2.345 3.33231H0V4.16538H6.25V1.57609e-07H5.41667Z" fill="#EEEEEE"/>
<path id="Vector_4" d="M8.75 4.16538V0H6.25V4.16538H0V6.66462H6.25V10.83H8.75V6.66462H15V4.16538H8.75Z" fill="#CF1B2B"/>
</g>
</svg>
