<svg width="53" height="58" viewBox="0 0 53 58" fill="none" xmlns="http://www.w3.org/2000/svg">
<g id="Group">
<g id="Group_2" filter="url(#filter0_ddd_625_3112)">
<path id="Vector" d="M22.508 2.71044L31.5214 17.6425L18.8045 21.148C10.0215 18.3334 4.84892 12.9153 1.72889 7.34751C0.414073 4.99822 0.424642 0.685059 5.65219 0.685059H18.8595C19.5972 0.684935 20.3221 0.872 20.9621 1.22767C21.6022 1.58334 22.1351 2.09318 22.508 2.71044Z" fill="#C6B6D8"/>
<path id="Vector_2" d="M22.508 2.71044L31.5214 17.6425L18.8045 21.148C10.0215 18.3334 4.84892 12.9153 1.72889 7.34751C0.414073 4.99822 0.424642 0.685059 5.65219 0.685059H18.8595C19.5972 0.684935 20.3221 0.872 20.9621 1.22767C21.6022 1.58334 22.1351 2.09318 22.508 2.71044Z" fill="url(#paint0_radial_625_3112)"/>
<path id="Vector_3" d="M22.508 2.71044L31.5214 17.6425L18.8045 21.148C10.0215 18.3334 4.84892 12.9153 1.72889 7.34751C0.414073 4.99822 0.424642 0.685059 5.65219 0.685059H18.8595C19.5972 0.684935 20.3221 0.872 20.9621 1.22767C21.6022 1.58334 22.1351 2.09318 22.508 2.71044Z" fill="url(#paint1_linear_625_3112)"/>
</g>
<g id="Group_3" filter="url(#filter1_ddd_625_3112)">
<path id="Vector_4" d="M30.492 2.71054L21.4785 17.6426L34.1954 21.1481C42.9785 18.3314 48.151 12.9133 51.2711 7.34555C52.5859 4.99627 52.5753 0.683106 47.3478 0.683106H34.1405C33.4028 0.682981 32.6779 0.870047 32.0379 1.22572C31.3978 1.58139 30.8649 2.09328 30.492 2.71054Z" fill="#4686EC"/>
<path id="Vector_5" d="M30.492 2.71054L21.4785 17.6426L34.1954 21.1481C42.9785 18.3314 48.151 12.9133 51.2711 7.34555C52.5859 4.99627 52.5753 0.683106 47.3478 0.683106H34.1405C33.4028 0.682981 32.6779 0.870047 32.0379 1.22572C31.3978 1.58139 30.8649 2.09328 30.492 2.71054Z" fill="url(#paint2_radial_625_3112)"/>
<path id="Vector_6" d="M30.492 2.71054L21.4785 17.6426L34.1954 21.1481C42.9785 18.3314 48.151 12.9133 51.2711 7.34555C52.5859 4.99627 52.5753 0.683106 47.3478 0.683106H34.1405C33.4028 0.682981 32.6779 0.870047 32.0379 1.22572C31.3978 1.58139 30.8649 2.09328 30.492 2.71054Z" fill="url(#paint3_linear_625_3112)"/>
</g>
<path id="Vector_7" d="M30.492 2.71054L21.4785 17.6426L34.1954 21.1481C42.9785 18.3314 48.151 12.9133 51.2711 7.34555C52.5859 4.99627 52.5753 0.683106 47.3478 0.683106H34.1405C33.4028 0.682981 32.6779 0.870047 32.0379 1.22572C31.3978 1.58139 30.8649 2.09328 30.492 2.71054Z" fill="#D2C3E3"/>
<path id="Vector_8" d="M26.7614 57.2975C38.4919 57.2975 48.0014 48.0754 48.0014 36.6993C48.0014 25.3232 38.4919 16.1011 26.7614 16.1011C15.0309 16.1011 5.52148 25.3232 5.52148 36.6993C5.52148 48.0754 15.0309 57.2975 26.7614 57.2975Z" fill="url(#paint4_linear_625_3112)"/>
<path id="Vector_9" d="M26.7614 57.2975C38.4919 57.2975 48.0014 48.0754 48.0014 36.6993C48.0014 25.3232 38.4919 16.1011 26.7614 16.1011C15.0309 16.1011 5.52148 25.3232 5.52148 36.6993C5.52148 48.0754 15.0309 57.2975 26.7614 57.2975Z" fill="url(#paint5_linear_625_3112)"/>
<path id="Vector_10" d="M26.7606 54.5094C36.9034 54.5094 45.1257 46.5355 45.1257 36.6992C45.1257 26.8628 36.9034 18.8889 26.7606 18.8889C16.6178 18.8889 8.39551 26.8628 8.39551 36.6992C8.39551 46.5355 16.6178 54.5094 26.7606 54.5094Z" fill="url(#paint6_linear_625_3112)"/>
<path id="Vector_11" d="M26.7611 52.2484C35.6161 52.2484 42.7946 45.2868 42.7946 36.6993C42.7946 28.1117 35.6161 21.1501 26.7611 21.1501C17.906 21.1501 10.7275 28.1117 10.7275 36.6993C10.7275 45.2868 17.906 52.2484 26.7611 52.2484Z" fill="url(#paint7_linear_625_3112)"/>
<path id="Vector_12" d="M26.7611 52.2484C35.6161 52.2484 42.7946 45.2868 42.7946 36.6993C42.7946 28.1117 35.6161 21.1501 26.7611 21.1501C17.906 21.1501 10.7275 28.1117 10.7275 36.6993C10.7275 45.2868 17.906 52.2484 26.7611 52.2484Z" fill="url(#paint8_radial_625_3112)"/>
<path id="Vector_13" d="M26.7611 52.2484C35.6161 52.2484 42.7946 45.2868 42.7946 36.6993C42.7946 28.1117 35.6161 21.1501 26.7611 21.1501C17.906 21.1501 10.7275 28.1117 10.7275 36.6993C10.7275 45.2868 17.906 52.2484 26.7611 52.2484Z" fill="url(#paint9_radial_625_3112)"/>
<path id="Vector_14" d="M26.7611 52.2484C35.6161 52.2484 42.7946 45.2868 42.7946 36.6993C42.7946 28.1117 35.6161 21.1501 26.7611 21.1501C17.906 21.1501 10.7275 28.1117 10.7275 36.6993C10.7275 45.2868 17.906 52.2484 26.7611 52.2484Z" fill="url(#paint10_radial_625_3112)"/>
<g id="Group_4" filter="url(#filter2_dd_625_3112)">
<path id="Vector_15" d="M30.9677 45.801H22.5758C22.1715 45.802 21.7753 45.6905 21.4344 45.4798C21.0934 45.269 20.822 44.9679 20.6522 44.612C20.4759 44.2594 20.408 43.8651 20.4568 43.4761C20.5055 43.0871 20.6687 42.7199 20.927 42.4186L27.9027 34.1161C28.4523 33.4601 28.1986 32.7631 28.114 32.5581C28.0158 32.3195 27.8469 32.1143 27.6288 31.9684C27.4107 31.8226 27.1529 31.7424 26.888 31.7381H26.7823C26.1059 31.7381 25.4929 32.0456 25.0912 32.5786C24.4148 33.5011 23.0831 33.7266 22.1107 33.0706C21.8814 32.9134 21.6863 32.7138 21.5367 32.4833C21.387 32.2528 21.2857 31.996 21.2386 31.7275C21.1915 31.459 21.1994 31.1841 21.262 30.9186C21.3246 30.653 21.4406 30.4021 21.6034 30.1801C22.7871 28.5607 24.7107 27.5972 26.7612 27.5972H27.036C29.1921 27.6997 31.0734 28.9502 31.9612 30.8566C32.8702 32.8246 32.5743 35.0591 31.1791 36.7196L27.0571 41.6396H30.9466C32.1303 41.6396 33.0816 42.562 33.0816 43.71C33.0816 44.858 32.1515 45.801 30.9677 45.801Z" fill="#6A6372"/>
</g>
</g>
<defs>
<filter id="filter0_ddd_625_3112" x="0.25" y="0.0850586" width="31.8715" height="21.8129" filterUnits="userSpaceOnUse" color-interpolation-filters="sRGB">
<feFlood flood-opacity="0" result="BackgroundImageFix"/>
<feColorMatrix in="SourceAlpha" type="matrix" values="0 0 0 0 0 0 0 0 0 0 0 0 0 0 0 0 0 0 127 0" result="hardAlpha"/>
<feOffset dx="-0.2" dy="-0.2"/>
<feGaussianBlur stdDeviation="0.2"/>
<feComposite in2="hardAlpha" operator="out"/>
<feColorMatrix type="matrix" values="0 0 0 0 0.317647 0 0 0 0 0.458824 0 0 0 0 0.886275 0 0 0 1 0"/>
<feBlend mode="normal" in2="BackgroundImageFix" result="effect1_dropShadow_625_3112"/>
<feColorMatrix in="SourceAlpha" type="matrix" values="0 0 0 0 0 0 0 0 0 0 0 0 0 0 0 0 0 0 127 0" result="hardAlpha"/>
<feOffset dx="0.2" dy="0.2"/>
<feGaussianBlur stdDeviation="0.2"/>
<feComposite in2="hardAlpha" operator="out"/>
<feColorMatrix type="matrix" values="0 0 0 0 0.317647 0 0 0 0 0.458824 0 0 0 0 0.886275 0 0 0 1 0"/>
<feBlend mode="normal" in2="effect1_dropShadow_625_3112" result="effect2_dropShadow_625_3112"/>
<feColorMatrix in="SourceAlpha" type="matrix" values="0 0 0 0 0 0 0 0 0 0 0 0 0 0 0 0 0 0 127 0" result="hardAlpha"/>
<feOffset dx="-0.25" dy="0.25"/>
<feGaussianBlur stdDeviation="0.25"/>
<feComposite in2="hardAlpha" operator="out"/>
<feColorMatrix type="matrix" values="0 0 0 0 0.372549 0 0 0 0 0.607843 0 0 0 0 0.960784 0 0 0 1 0"/>
<feBlend mode="normal" in2="effect2_dropShadow_625_3112" result="effect3_dropShadow_625_3112"/>
<feBlend mode="normal" in="SourceGraphic" in2="effect3_dropShadow_625_3112" result="shape"/>
</filter>
<filter id="filter1_ddd_625_3112" x="20.7285" y="0.0831055" width="31.8715" height="21.8151" filterUnits="userSpaceOnUse" color-interpolation-filters="sRGB">
<feFlood flood-opacity="0" result="BackgroundImageFix"/>
<feColorMatrix in="SourceAlpha" type="matrix" values="0 0 0 0 0 0 0 0 0 0 0 0 0 0 0 0 0 0 127 0" result="hardAlpha"/>
<feOffset dx="-0.2" dy="-0.2"/>
<feGaussianBlur stdDeviation="0.2"/>
<feComposite in2="hardAlpha" operator="out"/>
<feColorMatrix type="matrix" values="0 0 0 0 0.317647 0 0 0 0 0.458824 0 0 0 0 0.886275 0 0 0 1 0"/>
<feBlend mode="normal" in2="BackgroundImageFix" result="effect1_dropShadow_625_3112"/>
<feColorMatrix in="SourceAlpha" type="matrix" values="0 0 0 0 0 0 0 0 0 0 0 0 0 0 0 0 0 0 127 0" result="hardAlpha"/>
<feOffset dx="0.2" dy="0.2"/>
<feGaussianBlur stdDeviation="0.2"/>
<feComposite in2="hardAlpha" operator="out"/>
<feColorMatrix type="matrix" values="0 0 0 0 0.317647 0 0 0 0 0.458824 0 0 0 0 0.886275 0 0 0 1 0"/>
<feBlend mode="normal" in2="effect1_dropShadow_625_3112" result="effect2_dropShadow_625_3112"/>
<feColorMatrix in="SourceAlpha" type="matrix" values="0 0 0 0 0 0 0 0 0 0 0 0 0 0 0 0 0 0 127 0" result="hardAlpha"/>
<feOffset dx="-0.25" dy="0.25"/>
<feGaussianBlur stdDeviation="0.25"/>
<feComposite in2="hardAlpha" operator="out"/>
<feColorMatrix type="matrix" values="0 0 0 0 0.372549 0 0 0 0 0.607843 0 0 0 0 0.960784 0 0 0 1 0"/>
<feBlend mode="normal" in2="effect2_dropShadow_625_3112" result="effect3_dropShadow_625_3112"/>
<feBlend mode="normal" in="SourceGraphic" in2="effect3_dropShadow_625_3112" result="shape"/>
</filter>
<filter id="filter2_dd_625_3112" x="19.5414" y="26.9972" width="14.1406" height="19.7039" filterUnits="userSpaceOnUse" color-interpolation-filters="sRGB">
<feFlood flood-opacity="0" result="BackgroundImageFix"/>
<feColorMatrix in="SourceAlpha" type="matrix" values="0 0 0 0 0 0 0 0 0 0 0 0 0 0 0 0 0 0 127 0" result="hardAlpha"/>
<feOffset dx="-0.3" dy="0.3"/>
<feGaussianBlur stdDeviation="0.3"/>
<feComposite in2="hardAlpha" operator="out"/>
<feColorMatrix type="matrix" values="0 0 0 0 0.286275 0 0 0 0 0.223529 0 0 0 0 0.345098 0 0 0 1 0"/>
<feBlend mode="normal" in2="BackgroundImageFix" result="effect1_dropShadow_625_3112"/>
<feColorMatrix in="SourceAlpha" type="matrix" values="0 0 0 0 0 0 0 0 0 0 0 0 0 0 0 0 0 0 127 0" result="hardAlpha"/>
<feOffset dx="0.2" dy="-0.2"/>
<feGaussianBlur stdDeviation="0.2"/>
<feComposite in2="hardAlpha" operator="out"/>
<feColorMatrix type="matrix" values="0 0 0 0 0.482353 0 0 0 0 0.47451 0 0 0 0 0.490196 0 0 0 1 0"/>
<feBlend mode="normal" in2="effect1_dropShadow_625_3112" result="effect2_dropShadow_625_3112"/>
<feBlend mode="normal" in="SourceGraphic" in2="effect2_dropShadow_625_3112" result="shape"/>
</filter>
<radialGradient id="paint0_radial_625_3112" cx="0" cy="0" r="1" gradientUnits="userSpaceOnUse" gradientTransform="translate(20.5392 19.7032) rotate(-124.133) scale(9.52681 35.9998)">
<stop offset="1" stop-color="#D2C3E3"/>
</radialGradient>
<linearGradient id="paint1_linear_625_3112" x1="6.7535" y1="-0.423982" x2="10.3518" y2="8.8158" gradientUnits="userSpaceOnUse">
<stop offset="1" stop-color="#D2C3E3"/>
</linearGradient>
<radialGradient id="paint2_radial_625_3112" cx="0" cy="0" r="1" gradientUnits="userSpaceOnUse" gradientTransform="translate(32.4621 19.7049) rotate(-56.4603) scale(6.30733 14.007)">
<stop stop-color="#3669D9"/>
<stop offset="1" stop-color="#3669D9" stop-opacity="0"/>
</radialGradient>
<linearGradient id="paint3_linear_625_3112" x1="46.2465" y1="-0.423886" x2="42.6482" y2="8.8159" gradientUnits="userSpaceOnUse">
<stop stop-color="#3D89EC"/>
<stop offset="1" stop-color="#3D89EC" stop-opacity="0"/>
</linearGradient>
<linearGradient id="paint4_linear_625_3112" x1="43.1437" y1="26.0517" x2="23.9389" y2="44.1577" gradientUnits="userSpaceOnUse">
<stop stop-color="#EFEAF6"/>
<stop offset="1" stop-color="#B5A8C3"/>
</linearGradient>
<linearGradient id="paint5_linear_625_3112" x1="19.3397" y1="58.2979" x2="23.8524" y2="31.3127" gradientUnits="userSpaceOnUse">
<stop stop-color="#D0A9F4"/>
<stop offset="1" stop-color="#D0A9F4" stop-opacity="0"/>
</linearGradient>
<linearGradient id="paint6_linear_625_3112" x1="43.4938" y1="33.5852" x2="26.7606" y2="33.5852" gradientUnits="userSpaceOnUse">
<stop stop-color="#D3C6E2"/>
<stop offset="1" stop-color="#D6C6E8"/>
</linearGradient>
<linearGradient id="paint7_linear_625_3112" x1="16.697" y1="40.7398" x2="43.2392" y2="32.4573" gradientUnits="userSpaceOnUse">
<stop stop-color="#E0D3EF"/>
<stop offset="1" stop-color="#C1B0D4"/>
</linearGradient>
<radialGradient id="paint8_radial_625_3112" cx="0" cy="0" r="1" gradientUnits="userSpaceOnUse" gradientTransform="translate(32.8457 34.3424) rotate(157.277) scale(23.9786 20.0021)">
<stop offset="0.837" stop-color="#F6ECFE" stop-opacity="0"/>
<stop offset="1" stop-color="#F6ECFE"/>
</radialGradient>
<radialGradient id="paint9_radial_625_3112" cx="0" cy="0" r="1" gradientUnits="userSpaceOnUse" gradientTransform="translate(24.7132 38.5428) rotate(-40.4243) scale(18.7013 17.8777)">
<stop offset="0.91" stop-color="#B396CF" stop-opacity="0"/>
<stop offset="0.992" stop-color="#B796D5"/>
</radialGradient>
<radialGradient id="paint10_radial_625_3112" cx="0" cy="0" r="1" gradientUnits="userSpaceOnUse" gradientTransform="translate(26.2981 35.4037) rotate(37.0819) scale(17.6369 19.8289)">
<stop offset="0.926" stop-color="#AB9CBB" stop-opacity="0"/>
<stop offset="1" stop-color="#AB9CBB"/>
</radialGradient>
</defs>
</svg>
