<svg width="46" height="51" viewBox="0 0 46 51" fill="none" xmlns="http://www.w3.org/2000/svg">
<g id="Group">
<g id="Group_2" filter="url(#filter0_ddd_625_3150)">
<path id="Vector" d="M19.426 3.13678L27.1478 15.9814L16.2532 18.9968C8.72875 16.5757 4.29738 11.915 1.62444 7.1256C0.498035 5.10474 0.50709 1.39453 4.98554 1.39453H16.3003C16.9322 1.39442 17.5532 1.55534 18.1016 1.86129C18.6499 2.16724 19.1065 2.60581 19.426 3.13678Z" fill="#D28D5E"/>
<path id="Vector_2" d="M19.426 3.13678L27.1478 15.9814L16.2532 18.9968C8.72875 16.5757 4.29738 11.915 1.62444 7.1256C0.498035 5.10474 0.50709 1.39453 4.98554 1.39453H16.3003C16.9322 1.39442 17.5532 1.55534 18.1016 1.86129C18.6499 2.16724 19.1065 2.60581 19.426 3.13678Z" fill="#CF8A5B"/>
<path id="Vector_3" d="M19.426 3.13678L27.1478 15.9814L16.2532 18.9968C8.72875 16.5757 4.29738 11.915 1.62444 7.1256C0.498035 5.10474 0.50709 1.39453 4.98554 1.39453H16.3003C16.9322 1.39442 17.5532 1.55534 18.1016 1.86129C18.6499 2.16724 19.1065 2.60581 19.426 3.13678Z" fill="#C37E51"/>
</g>
<g id="Group_3" filter="url(#filter1_ddd_625_3150)">
<path id="Vector_4" d="M26.2658 3.13707L18.5439 15.9817L29.4385 18.9971C36.963 16.5742 41.3944 11.9135 44.0673 7.12414C45.1937 5.10327 45.1846 1.39307 40.7062 1.39307H29.3915C28.7595 1.39296 28.1385 1.55387 27.5902 1.85982C27.0418 2.16577 26.5852 2.60611 26.2658 3.13707Z" fill="#4686EC"/>
<path id="Vector_5" d="M26.2658 3.13707L18.5439 15.9817L29.4385 18.9971C36.963 16.5742 41.3944 11.9135 44.0673 7.12414C45.1937 5.10327 45.1846 1.39307 40.7062 1.39307H29.3915C28.7595 1.39296 28.1385 1.55387 27.5902 1.85982C27.0418 2.16577 26.5852 2.60611 26.2658 3.13707Z" fill="url(#paint0_radial_625_3150)"/>
<path id="Vector_6" d="M26.2658 3.13707L18.5439 15.9817L29.4385 18.9971C36.963 16.5742 41.3944 11.9135 44.0673 7.12414C45.1937 5.10327 45.1846 1.39307 40.7062 1.39307H29.3915C28.7595 1.39296 28.1385 1.55387 27.5902 1.85982C27.0418 2.16577 26.5852 2.60611 26.2658 3.13707Z" fill="url(#paint1_linear_625_3150)"/>
</g>
<path id="Vector_7" d="M26.2658 3.13707L18.5439 15.9817L29.4385 18.9971C36.963 16.5742 41.3944 11.9135 44.0673 7.12414C45.1937 5.10327 45.1846 1.39307 40.7062 1.39307H29.3915C28.7595 1.39296 28.1385 1.55387 27.5902 1.85982C27.0418 2.16577 26.5852 2.60611 26.2658 3.13707Z" fill="#C27D51"/>
<path id="Vector_8" d="M23.0693 50.0929C33.1189 50.0929 41.2656 42.16 41.2656 32.3742C41.2656 22.5884 33.1189 14.6555 23.0693 14.6555C13.0198 14.6555 4.87305 22.5884 4.87305 32.3742C4.87305 42.16 13.0198 50.0929 23.0693 50.0929Z" fill="url(#paint2_linear_625_3150)"/>
<path id="Vector_9" d="M23.0693 50.0929C33.1189 50.0929 41.2656 42.16 41.2656 32.3742C41.2656 22.5884 33.1189 14.6555 23.0693 14.6555C13.0198 14.6555 4.87305 22.5884 4.87305 32.3742C4.87305 42.16 13.0198 50.0929 23.0693 50.0929Z" fill="url(#paint3_linear_625_3150)"/>
<path id="Vector_10" d="M23.0694 47.6946C31.7587 47.6946 38.8028 40.8354 38.8028 32.3742C38.8028 23.9129 31.7587 17.0537 23.0694 17.0537C14.38 17.0537 7.33594 23.9129 7.33594 32.3742C7.33594 40.8354 14.38 47.6946 23.0694 47.6946Z" fill="url(#paint4_linear_625_3150)"/>
<path id="Vector_11" d="M23.0699 45.7496C30.6561 45.7496 36.8059 39.7613 36.8059 32.3742C36.8059 24.9872 30.6561 18.9988 23.0699 18.9988C15.4838 18.9988 9.33398 24.9872 9.33398 32.3742C9.33398 39.7613 15.4838 45.7496 23.0699 45.7496Z" fill="url(#paint5_linear_625_3150)"/>
<path id="Vector_12" d="M23.0699 45.7496C30.6561 45.7496 36.8059 39.7613 36.8059 32.3742C36.8059 24.9872 30.6561 18.9988 23.0699 18.9988C15.4838 18.9988 9.33398 24.9872 9.33398 32.3742C9.33398 39.7613 15.4838 45.7496 23.0699 45.7496Z" fill="url(#paint6_radial_625_3150)"/>
<path id="Vector_13" d="M23.0699 45.7496C30.6561 45.7496 36.8059 39.7613 36.8059 32.3742C36.8059 24.9872 30.6561 18.9988 23.0699 18.9988C15.4838 18.9988 9.33398 24.9872 9.33398 32.3742C9.33398 39.7613 15.4838 45.7496 23.0699 45.7496Z" fill="url(#paint7_radial_625_3150)"/>
<path id="Vector_14" d="M23.0699 45.7496C30.6561 45.7496 36.8059 39.7613 36.8059 32.3742C36.8059 24.9872 30.6561 18.9988 23.0699 18.9988C15.4838 18.9988 9.33398 24.9872 9.33398 32.3742C9.33398 39.7613 15.4838 45.7496 23.0699 45.7496Z" fill="url(#paint8_radial_625_3150)"/>
<g id="Group_4" filter="url(#filter2_ddd_625_3150)">
<path id="Vector_15" d="M25.6289 29.8049L27.5231 26.6132C27.6768 26.3511 27.7577 26.0545 27.7577 25.7526C27.7577 25.4508 27.6768 25.1542 27.5231 24.8921C27.3694 24.63 27.1472 24.4121 26.8791 24.2607C26.611 24.1092 26.3065 24.0296 25.9965 24.0298H20.3953C19.9263 24.0298 19.4765 24.2112 19.1448 24.5341C18.8132 24.8571 18.6269 25.2951 18.6269 25.7518C18.6269 26.2084 18.8132 26.6464 19.1448 26.9694C19.4765 27.2923 19.9263 27.4737 20.3953 27.4737H22.1555C22.2348 27.4737 22.3127 27.494 22.3814 27.5326C22.4501 27.5711 22.5072 27.6265 22.5469 27.6933C22.5867 27.7601 22.6078 27.8359 22.6081 27.9131C22.6084 27.9903 22.5878 28.0662 22.5485 28.1332L21.5742 29.7873C21.3251 30.0868 21.1884 30.46 21.1866 30.8453C21.1866 31.7958 21.9798 32.5664 22.9559 32.5664C24.0606 32.5664 24.9625 33.4446 24.9625 34.5203C24.9625 35.596 24.0606 36.4759 22.9559 36.4759C22.544 36.4764 22.142 36.3525 21.8054 36.1214C21.4688 35.8902 21.214 35.5631 21.0762 35.1851C20.9185 34.7583 20.594 34.4095 20.1734 34.2146C19.7528 34.0198 19.2702 33.9946 18.8306 34.1447C18.6123 34.2189 18.4113 34.3346 18.2392 34.485C18.067 34.6354 17.9273 34.8176 17.8279 35.0209C17.7285 35.2243 17.6716 35.4448 17.6603 35.6697C17.649 35.8946 17.6836 36.1195 17.7622 36.3313C18.1471 37.373 18.8517 38.2742 19.7805 38.9127C20.7092 39.5511 21.8172 39.896 22.9541 39.9004C24.4189 39.8995 25.8234 39.3326 26.8593 38.3242C27.8952 37.3158 28.4779 35.9484 28.4793 34.522C28.4769 33.5598 28.2112 32.6155 27.7095 31.7864C27.2079 30.9573 26.4885 30.2734 25.6253 29.8049H25.6289Z" fill="#6C3F48"/>
</g>
</g>
<defs>
<filter id="filter0_ddd_625_3150" x="0.25" y="0.794531" width="27.4975" height="18.9523" filterUnits="userSpaceOnUse" color-interpolation-filters="sRGB">
<feFlood flood-opacity="0" result="BackgroundImageFix"/>
<feColorMatrix in="SourceAlpha" type="matrix" values="0 0 0 0 0 0 0 0 0 0 0 0 0 0 0 0 0 0 127 0" result="hardAlpha"/>
<feOffset dx="-0.2" dy="-0.2"/>
<feGaussianBlur stdDeviation="0.2"/>
<feComposite in2="hardAlpha" operator="out"/>
<feColorMatrix type="matrix" values="0 0 0 0 0.317647 0 0 0 0 0.458824 0 0 0 0 0.886275 0 0 0 1 0"/>
<feBlend mode="normal" in2="BackgroundImageFix" result="effect1_dropShadow_625_3150"/>
<feColorMatrix in="SourceAlpha" type="matrix" values="0 0 0 0 0 0 0 0 0 0 0 0 0 0 0 0 0 0 127 0" result="hardAlpha"/>
<feOffset dx="0.2" dy="0.2"/>
<feGaussianBlur stdDeviation="0.2"/>
<feComposite in2="hardAlpha" operator="out"/>
<feColorMatrix type="matrix" values="0 0 0 0 0.317647 0 0 0 0 0.458824 0 0 0 0 0.886275 0 0 0 1 0"/>
<feBlend mode="normal" in2="effect1_dropShadow_625_3150" result="effect2_dropShadow_625_3150"/>
<feColorMatrix in="SourceAlpha" type="matrix" values="0 0 0 0 0 0 0 0 0 0 0 0 0 0 0 0 0 0 127 0" result="hardAlpha"/>
<feOffset dx="-0.25" dy="0.25"/>
<feGaussianBlur stdDeviation="0.25"/>
<feComposite in2="hardAlpha" operator="out"/>
<feColorMatrix type="matrix" values="0 0 0 0 0.372549 0 0 0 0 0.607843 0 0 0 0 0.960784 0 0 0 1 0"/>
<feBlend mode="normal" in2="effect2_dropShadow_625_3150" result="effect3_dropShadow_625_3150"/>
<feBlend mode="normal" in="SourceGraphic" in2="effect3_dropShadow_625_3150" result="shape"/>
</filter>
<filter id="filter1_ddd_625_3150" x="17.7939" y="0.793066" width="27.4975" height="18.954" filterUnits="userSpaceOnUse" color-interpolation-filters="sRGB">
<feFlood flood-opacity="0" result="BackgroundImageFix"/>
<feColorMatrix in="SourceAlpha" type="matrix" values="0 0 0 0 0 0 0 0 0 0 0 0 0 0 0 0 0 0 127 0" result="hardAlpha"/>
<feOffset dx="-0.2" dy="-0.2"/>
<feGaussianBlur stdDeviation="0.2"/>
<feComposite in2="hardAlpha" operator="out"/>
<feColorMatrix type="matrix" values="0 0 0 0 0.317647 0 0 0 0 0.458824 0 0 0 0 0.886275 0 0 0 1 0"/>
<feBlend mode="normal" in2="BackgroundImageFix" result="effect1_dropShadow_625_3150"/>
<feColorMatrix in="SourceAlpha" type="matrix" values="0 0 0 0 0 0 0 0 0 0 0 0 0 0 0 0 0 0 127 0" result="hardAlpha"/>
<feOffset dx="0.2" dy="0.2"/>
<feGaussianBlur stdDeviation="0.2"/>
<feComposite in2="hardAlpha" operator="out"/>
<feColorMatrix type="matrix" values="0 0 0 0 0.317647 0 0 0 0 0.458824 0 0 0 0 0.886275 0 0 0 1 0"/>
<feBlend mode="normal" in2="effect1_dropShadow_625_3150" result="effect2_dropShadow_625_3150"/>
<feColorMatrix in="SourceAlpha" type="matrix" values="0 0 0 0 0 0 0 0 0 0 0 0 0 0 0 0 0 0 127 0" result="hardAlpha"/>
<feOffset dx="-0.25" dy="0.25"/>
<feGaussianBlur stdDeviation="0.25"/>
<feComposite in2="hardAlpha" operator="out"/>
<feColorMatrix type="matrix" values="0 0 0 0 0.372549 0 0 0 0 0.607843 0 0 0 0 0.960784 0 0 0 1 0"/>
<feBlend mode="normal" in2="effect2_dropShadow_625_3150" result="effect3_dropShadow_625_3150"/>
<feBlend mode="normal" in="SourceGraphic" in2="effect3_dropShadow_625_3150" result="shape"/>
</filter>
<filter id="filter2_ddd_625_3150" x="16.7582" y="23.4298" width="12.3213" height="17.3706" filterUnits="userSpaceOnUse" color-interpolation-filters="sRGB">
<feFlood flood-opacity="0" result="BackgroundImageFix"/>
<feColorMatrix in="SourceAlpha" type="matrix" values="0 0 0 0 0 0 0 0 0 0 0 0 0 0 0 0 0 0 127 0" result="hardAlpha"/>
<feOffset dx="-0.3" dy="0.3"/>
<feGaussianBlur stdDeviation="0.3"/>
<feComposite in2="hardAlpha" operator="out"/>
<feColorMatrix type="matrix" values="0 0 0 0 0.270588 0 0 0 0 0.113725 0 0 0 0 0.0745098 0 0 0 1 0"/>
<feBlend mode="normal" in2="BackgroundImageFix" result="effect1_dropShadow_625_3150"/>
<feColorMatrix in="SourceAlpha" type="matrix" values="0 0 0 0 0 0 0 0 0 0 0 0 0 0 0 0 0 0 127 0" result="hardAlpha"/>
<feOffset dx="0.2" dy="-0.2"/>
<feGaussianBlur stdDeviation="0.2"/>
<feComposite in2="hardAlpha" operator="out"/>
<feColorMatrix type="matrix" values="0 0 0 0 0.490196 0 0 0 0 0.352941 0 0 0 0 0.321569 0 0 0 1 0"/>
<feBlend mode="normal" in2="effect1_dropShadow_625_3150" result="effect2_dropShadow_625_3150"/>
<feColorMatrix in="SourceAlpha" type="matrix" values="0 0 0 0 0 0 0 0 0 0 0 0 0 0 0 0 0 0 127 0" result="hardAlpha"/>
<feOffset dx="0.2" dy="0.2"/>
<feGaussianBlur stdDeviation="0.2"/>
<feComposite in2="hardAlpha" operator="out"/>
<feColorMatrix type="matrix" values="0 0 0 0 0.270588 0 0 0 0 0.113725 0 0 0 0 0.0745098 0 0 0 1 0"/>
<feBlend mode="normal" in2="effect2_dropShadow_625_3150" result="effect3_dropShadow_625_3150"/>
<feBlend mode="normal" in="SourceGraphic" in2="effect3_dropShadow_625_3150" result="shape"/>
</filter>
<radialGradient id="paint0_radial_625_3150" cx="0" cy="0" r="1" gradientUnits="userSpaceOnUse" gradientTransform="translate(27.9536 17.7557) rotate(-56.5679) scale(5.41886 12.0147)">
<stop stop-color="#3669D9"/>
<stop offset="1" stop-color="#3669D9" stop-opacity="0"/>
</radialGradient>
<linearGradient id="paint1_linear_625_3150" x1="39.7627" y1="0.440827" x2="36.6581" y2="8.38037" gradientUnits="userSpaceOnUse">
<stop stop-color="#3D89EC"/>
<stop offset="1" stop-color="#3D89EC" stop-opacity="0"/>
</linearGradient>
<linearGradient id="paint2_linear_625_3150" x1="37.1041" y1="23.2151" x2="20.5881" y2="38.7227" gradientUnits="userSpaceOnUse">
<stop stop-color="#F6BC7F"/>
<stop offset="1" stop-color="#A76740"/>
</linearGradient>
<linearGradient id="paint3_linear_625_3150" x1="16.7111" y1="50.9535" x2="20.608" y2="27.7458" gradientUnits="userSpaceOnUse">
<stop stop-color="#B05B5B"/>
<stop offset="1" stop-color="#B05B5B" stop-opacity="0"/>
</linearGradient>
<linearGradient id="paint4_linear_625_3150" x1="37.4047" y1="29.6956" x2="23.0694" y2="29.6956" gradientUnits="userSpaceOnUse">
<stop stop-color="#CD8858"/>
<stop offset="1" stop-color="#D28D59"/>
</linearGradient>
<linearGradient id="paint5_linear_625_3150" x1="14.4481" y1="35.8499" x2="37.2032" y2="28.778" gradientUnits="userSpaceOnUse">
<stop stop-color="#D38E5F"/>
<stop offset="1" stop-color="#BE794E"/>
</linearGradient>
<radialGradient id="paint6_radial_625_3150" cx="0" cy="0" r="1" gradientUnits="userSpaceOnUse" gradientTransform="translate(28.2826 30.3468) rotate(157.194) scale(20.5551 17.1954)">
<stop offset="0.837" stop-color="#E5AC75" stop-opacity="0"/>
<stop offset="1" stop-color="#E5AC75"/>
</radialGradient>
<radialGradient id="paint7_radial_625_3150" cx="0" cy="0" r="1" gradientUnits="userSpaceOnUse" gradientTransform="translate(21.3156 33.96) rotate(-40.5398) scale(16.049 15.3521)">
<stop offset="0.91" stop-color="#B36441" stop-opacity="0"/>
<stop offset="1" stop-color="#B36441"/>
</radialGradient>
<radialGradient id="paint8_radial_625_3150" cx="0" cy="0" r="1" gradientUnits="userSpaceOnUse" gradientTransform="translate(22.6733 31.2597) rotate(37.1944) scale(15.1321 17.0316)">
<stop offset="0.926" stop-color="#AB662B" stop-opacity="0"/>
<stop offset="1" stop-color="#AB662B"/>
</radialGradient>
</defs>
</svg>
