<svg width="57" height="65" viewBox="0 0 57 65" fill="none" xmlns="http://www.w3.org/2000/svg">
<g id="Group">
<g id="Group_2" filter="url(#filter0_ddd_625_3074)">
<path id="Vector" d="M24.1949 3.27541L33.9153 20.0328L20.201 23.9668C10.7291 20.8081 5.1508 14.7277 1.78605 8.47932C0.368118 5.84286 0.379516 1.00244 6.01707 1.00244H20.2603C21.0558 1.0023 21.8375 1.21224 22.5278 1.61138C23.218 2.01053 23.7928 2.5827 24.1949 3.27541Z" fill="#F09E3A"/>
<path id="Vector_2" d="M24.1949 3.27541L33.9153 20.0328L20.201 23.9668C10.7291 20.8081 5.1508 14.7277 1.78605 8.47932C0.368118 5.84286 0.379516 1.00244 6.01707 1.00244H20.2603C21.0558 1.0023 21.8375 1.21224 22.5278 1.61138C23.218 2.01053 23.7928 2.5827 24.1949 3.27541Z" fill="#F09E3B"/>
<path id="Vector_3" d="M24.1949 3.27541L33.9153 20.0328L20.201 23.9668C10.7291 20.8081 5.1508 14.7277 1.78605 8.47932C0.368118 5.84286 0.379516 1.00244 6.01707 1.00244H20.2603C21.0558 1.0023 21.8375 1.21224 22.5278 1.61138C23.218 2.01053 23.7928 2.5827 24.1949 3.27541Z" fill="#EF9D3A"/>
</g>
<g id="Group_3" filter="url(#filter1_ddd_625_3074)">
<path id="Vector_4" d="M32.8053 3.27527L23.085 20.0327L36.7993 23.9667C46.2712 20.8057 51.8495 14.7253 55.2142 8.47688C56.6321 5.84042 56.6207 1 50.9832 1H36.74C35.9445 0.999861 35.1627 1.20979 34.4725 1.60894C33.7822 2.00809 33.2075 2.58256 32.8053 3.27527Z" fill="#4686EC"/>
<path id="Vector_5" d="M32.8053 3.27527L23.085 20.0327L36.7993 23.9667C46.2712 20.8057 51.8495 14.7253 55.2142 8.47688C56.6321 5.84042 56.6207 1 50.9832 1H36.74C35.9445 0.999861 35.1627 1.20979 34.4725 1.60894C33.7822 2.00809 33.2075 2.58256 32.8053 3.27527Z" fill="url(#paint0_radial_625_3074)"/>
<path id="Vector_6" d="M32.8053 3.27527L23.085 20.0327L36.7993 23.9667C46.2712 20.8057 51.8495 14.7253 55.2142 8.47688C56.6321 5.84042 56.6207 1 50.9832 1H36.74C35.9445 0.999861 35.1627 1.20979 34.4725 1.60894C33.7822 2.00809 33.2075 2.58256 32.8053 3.27527Z" fill="url(#paint1_linear_625_3074)"/>
</g>
<path id="Vector_7" d="M32.8053 3.27527L23.085 20.0327L36.7993 23.9667C46.2712 20.8057 51.8495 14.7253 55.2142 8.47688C56.6321 5.84042 56.6207 1 50.9832 1H36.74C35.9445 0.999861 35.1627 1.20979 34.4725 1.60894C33.7822 2.00809 33.2075 2.58256 32.8053 3.27527Z" fill="url(#paint2_linear_625_3074)"/>
<path id="Vector_8" d="M28.7818 64.5349C41.4323 64.5349 51.6876 54.1854 51.6876 41.4187C51.6876 28.652 41.4323 18.3025 28.7818 18.3025C16.1313 18.3025 5.87598 28.652 5.87598 41.4187C5.87598 54.1854 16.1313 64.5349 28.7818 64.5349Z" fill="url(#paint3_linear_625_3074)"/>
<path id="Vector_9" d="M28.7818 64.5349C41.4323 64.5349 51.6876 54.1854 51.6876 41.4187C51.6876 28.652 41.4323 18.3025 28.7818 18.3025C16.1313 18.3025 5.87598 28.652 5.87598 41.4187C5.87598 54.1854 16.1313 64.5349 28.7818 64.5349Z" fill="url(#paint4_linear_625_3074)"/>
<path id="Vector_10" d="M28.7821 61.4063C39.7204 61.4063 48.5876 52.4576 48.5876 41.4188C48.5876 30.3801 39.7204 21.4314 28.7821 21.4314C17.8438 21.4314 8.97656 30.3801 8.97656 41.4188C8.97656 52.4576 17.8438 61.4063 28.7821 61.4063Z" fill="url(#paint5_linear_625_3074)"/>
<path id="Vector_11" d="M28.7813 58.8688C38.3309 58.8688 46.0724 51.0562 46.0724 41.4189C46.0724 31.7816 38.3309 23.969 28.7813 23.969C19.2317 23.969 11.4902 31.7816 11.4902 41.4189C11.4902 51.0562 19.2317 58.8688 28.7813 58.8688Z" fill="url(#paint6_linear_625_3074)"/>
<path id="Vector_12" d="M28.7813 58.8688C38.3309 58.8688 46.0724 51.0562 46.0724 41.4189C46.0724 31.7816 38.3309 23.969 28.7813 23.969C19.2317 23.969 11.4902 31.7816 11.4902 41.4189C11.4902 51.0562 19.2317 58.8688 28.7813 58.8688Z" fill="url(#paint7_radial_625_3074)"/>
<path id="Vector_13" d="M28.7813 58.8688C38.3309 58.8688 46.0724 51.0562 46.0724 41.4189C46.0724 31.7816 38.3309 23.969 28.7813 23.969C19.2317 23.969 11.4902 31.7816 11.4902 41.4189C11.4902 51.0562 19.2317 58.8688 28.7813 58.8688Z" fill="url(#paint8_radial_625_3074)"/>
<g id="Group_4" filter="url(#filter2_dd_625_3074)">
<path id="Vector_14" d="M31.4559 33.7533C31.4559 33.2652 31.2638 32.7971 30.9218 32.4519C30.5798 32.1067 30.1159 31.9128 29.6322 31.9128H25.2097C24.9679 31.9128 24.7359 32.0098 24.5649 32.1824C24.3939 32.3549 24.2979 32.589 24.2979 32.8331V35.5409C24.2979 36.047 24.7036 36.4611 25.2097 36.4611H26.2196C26.3707 36.4611 26.5157 36.5217 26.6226 36.6295C26.7295 36.7374 26.7895 36.8837 26.7895 37.0362V50.3175C26.7895 50.6226 26.9096 50.9151 27.1233 51.1309C27.3371 51.3466 27.627 51.4678 27.9293 51.4678H30.3161C30.6184 51.4678 30.9083 51.3466 31.1221 51.1309C31.3358 50.9151 31.4559 50.6226 31.4559 50.3175V33.7533Z" fill="#6F3955"/>
</g>
<path id="Vector_15" d="M31.4559 33.7533C31.4559 33.2652 31.2638 32.7971 30.9218 32.4519C30.5798 32.1067 30.1159 31.9128 29.6322 31.9128H25.2097C24.9679 31.9128 24.7359 32.0098 24.5649 32.1824C24.3939 32.3549 24.2979 32.589 24.2979 32.8331V35.5409C24.2979 36.047 24.7036 36.4611 25.2097 36.4611H26.2196C26.3707 36.4611 26.5157 36.5217 26.6226 36.6295C26.7295 36.7374 26.7895 36.8837 26.7895 37.0362V50.3175C26.7895 50.6226 26.9096 50.9151 27.1233 51.1309C27.3371 51.3466 27.627 51.4678 27.9293 51.4678H30.3161C30.6184 51.4678 30.9083 51.3466 31.1221 51.1309C31.3358 50.9151 31.4559 50.6226 31.4559 50.3175V33.7533Z" fill="url(#paint9_linear_625_3074)"/>
</g>
<defs>
<filter id="filter0_ddd_625_3074" x="0.25" y="0.402441" width="34.265" height="24.3144" filterUnits="userSpaceOnUse" color-interpolation-filters="sRGB">
<feFlood flood-opacity="0" result="BackgroundImageFix"/>
<feColorMatrix in="SourceAlpha" type="matrix" values="0 0 0 0 0 0 0 0 0 0 0 0 0 0 0 0 0 0 127 0" result="hardAlpha"/>
<feOffset dx="-0.2" dy="-0.2"/>
<feGaussianBlur stdDeviation="0.2"/>
<feComposite in2="hardAlpha" operator="out"/>
<feColorMatrix type="matrix" values="0 0 0 0 0.317647 0 0 0 0 0.458824 0 0 0 0 0.886275 0 0 0 1 0"/>
<feBlend mode="normal" in2="BackgroundImageFix" result="effect1_dropShadow_625_3074"/>
<feColorMatrix in="SourceAlpha" type="matrix" values="0 0 0 0 0 0 0 0 0 0 0 0 0 0 0 0 0 0 127 0" result="hardAlpha"/>
<feOffset dx="0.2" dy="0.2"/>
<feGaussianBlur stdDeviation="0.2"/>
<feComposite in2="hardAlpha" operator="out"/>
<feColorMatrix type="matrix" values="0 0 0 0 0.317647 0 0 0 0 0.458824 0 0 0 0 0.886275 0 0 0 1 0"/>
<feBlend mode="normal" in2="effect1_dropShadow_625_3074" result="effect2_dropShadow_625_3074"/>
<feColorMatrix in="SourceAlpha" type="matrix" values="0 0 0 0 0 0 0 0 0 0 0 0 0 0 0 0 0 0 127 0" result="hardAlpha"/>
<feOffset dx="-0.25" dy="0.25"/>
<feGaussianBlur stdDeviation="0.25"/>
<feComposite in2="hardAlpha" operator="out"/>
<feColorMatrix type="matrix" values="0 0 0 0 0.372549 0 0 0 0 0.607843 0 0 0 0 0.960784 0 0 0 1 0"/>
<feBlend mode="normal" in2="effect2_dropShadow_625_3074" result="effect3_dropShadow_625_3074"/>
<feBlend mode="normal" in="SourceGraphic" in2="effect3_dropShadow_625_3074" result="shape"/>
</filter>
<filter id="filter1_ddd_625_3074" x="22.335" y="0.4" width="34.265" height="24.3168" filterUnits="userSpaceOnUse" color-interpolation-filters="sRGB">
<feFlood flood-opacity="0" result="BackgroundImageFix"/>
<feColorMatrix in="SourceAlpha" type="matrix" values="0 0 0 0 0 0 0 0 0 0 0 0 0 0 0 0 0 0 127 0" result="hardAlpha"/>
<feOffset dx="-0.2" dy="-0.2"/>
<feGaussianBlur stdDeviation="0.2"/>
<feComposite in2="hardAlpha" operator="out"/>
<feColorMatrix type="matrix" values="0 0 0 0 0.317647 0 0 0 0 0.458824 0 0 0 0 0.886275 0 0 0 1 0"/>
<feBlend mode="normal" in2="BackgroundImageFix" result="effect1_dropShadow_625_3074"/>
<feColorMatrix in="SourceAlpha" type="matrix" values="0 0 0 0 0 0 0 0 0 0 0 0 0 0 0 0 0 0 127 0" result="hardAlpha"/>
<feOffset dx="0.2" dy="0.2"/>
<feGaussianBlur stdDeviation="0.2"/>
<feComposite in2="hardAlpha" operator="out"/>
<feColorMatrix type="matrix" values="0 0 0 0 0.317647 0 0 0 0 0.458824 0 0 0 0 0.886275 0 0 0 1 0"/>
<feBlend mode="normal" in2="effect1_dropShadow_625_3074" result="effect2_dropShadow_625_3074"/>
<feColorMatrix in="SourceAlpha" type="matrix" values="0 0 0 0 0 0 0 0 0 0 0 0 0 0 0 0 0 0 127 0" result="hardAlpha"/>
<feOffset dx="-0.25" dy="0.25"/>
<feGaussianBlur stdDeviation="0.25"/>
<feComposite in2="hardAlpha" operator="out"/>
<feColorMatrix type="matrix" values="0 0 0 0 0.372549 0 0 0 0 0.607843 0 0 0 0 0.960784 0 0 0 1 0"/>
<feBlend mode="normal" in2="effect2_dropShadow_625_3074" result="effect3_dropShadow_625_3074"/>
<feBlend mode="normal" in="SourceGraphic" in2="effect3_dropShadow_625_3074" result="shape"/>
</filter>
<filter id="filter2_dd_625_3074" x="23.3979" y="31.3128" width="8.6582" height="21.0549" filterUnits="userSpaceOnUse" color-interpolation-filters="sRGB">
<feFlood flood-opacity="0" result="BackgroundImageFix"/>
<feColorMatrix in="SourceAlpha" type="matrix" values="0 0 0 0 0 0 0 0 0 0 0 0 0 0 0 0 0 0 127 0" result="hardAlpha"/>
<feOffset dx="-0.3" dy="0.3"/>
<feGaussianBlur stdDeviation="0.3"/>
<feComposite in2="hardAlpha" operator="out"/>
<feColorMatrix type="matrix" values="0 0 0 0 0.392157 0 0 0 0 0.164706 0 0 0 0 0.254902 0 0 0 1 0"/>
<feBlend mode="normal" in2="BackgroundImageFix" result="effect1_dropShadow_625_3074"/>
<feColorMatrix in="SourceAlpha" type="matrix" values="0 0 0 0 0 0 0 0 0 0 0 0 0 0 0 0 0 0 127 0" result="hardAlpha"/>
<feOffset dx="0.2" dy="-0.2"/>
<feGaussianBlur stdDeviation="0.2"/>
<feComposite in2="hardAlpha" operator="out"/>
<feColorMatrix type="matrix" values="0 0 0 0 0.501961 0 0 0 0 0.333333 0 0 0 0 0.360784 0 0 0 1 0"/>
<feBlend mode="normal" in2="effect1_dropShadow_625_3074" result="effect2_dropShadow_625_3074"/>
<feBlend mode="normal" in="SourceGraphic" in2="effect2_dropShadow_625_3074" result="shape"/>
</filter>
<radialGradient id="paint0_radial_625_3074" cx="0" cy="0" r="1" gradientUnits="userSpaceOnUse" gradientTransform="translate(34.93 22.3471) rotate(-57.5027) scale(6.99516 15.2852)">
<stop offset="1" stop-color="#F2A03D"/>
</radialGradient>
<linearGradient id="paint1_linear_625_3074" x1="49.7955" y1="-0.242314" x2="45.6387" y2="10.015" gradientUnits="userSpaceOnUse">
<stop stop-color="#3D89EC"/>
<stop offset="1" stop-color="#3D89EC" stop-opacity="0"/>
</linearGradient>
<linearGradient id="paint2_linear_625_3074" x1="28.1024" y1="11.3526" x2="28.874" y2="11.7768" gradientUnits="userSpaceOnUse">
<stop offset="1" stop-color="#F2A03D"/>
</linearGradient>
<linearGradient id="paint3_linear_625_3074" x1="41.0257" y1="33.224" x2="24.9139" y2="48.8679" gradientUnits="userSpaceOnUse">
<stop stop-color="#F4C654"/>
<stop offset="1" stop-color="#DC9729"/>
</linearGradient>
<linearGradient id="paint4_linear_625_3074" x1="20.778" y1="65.6576" x2="26.0362" y2="35.4418" gradientUnits="userSpaceOnUse">
<stop stop-color="#FA8547"/>
<stop offset="1" stop-color="#FA8547" stop-opacity="0"/>
</linearGradient>
<linearGradient id="paint5_linear_625_3074" x1="46.8277" y1="37.9242" x2="28.7821" y2="37.9242" gradientUnits="userSpaceOnUse">
<stop stop-color="#F9A842"/>
<stop offset="1" stop-color="#FAA742"/>
</linearGradient>
<linearGradient id="paint6_linear_625_3074" x1="20.7889" y1="39.2057" x2="46.5807" y2="39.2057" gradientUnits="userSpaceOnUse">
<stop stop-color="#FAA945"/>
<stop offset="1" stop-color="#EC9936"/>
</linearGradient>
<radialGradient id="paint7_radial_625_3074" cx="0" cy="0" r="1" gradientUnits="userSpaceOnUse" gradientTransform="translate(35.4857 41.4189) rotate(180) scale(23.9948 20.634)">
<stop offset="0.893" stop-color="#F7B44D" stop-opacity="0"/>
<stop offset="1" stop-color="#F7B44D"/>
</radialGradient>
<radialGradient id="paint8_radial_625_3074" cx="0" cy="0" r="1" gradientUnits="userSpaceOnUse" gradientTransform="translate(24.2927 41.4189) scale(23.0882 20.4323)">
<stop offset="0.879" stop-color="#D2801F" stop-opacity="0"/>
<stop offset="0.983" stop-color="#D2801F"/>
</radialGradient>
<linearGradient id="paint9_linear_625_3074" x1="29.639" y1="51.4678" x2="29.639" y2="49.5882" gradientUnits="userSpaceOnUse">
<stop stop-color="#693B2E"/>
<stop offset="1" stop-color="#693B2E" stop-opacity="0"/>
</linearGradient>
</defs>
</svg>
